<?xml version="1.0" encoding="UTF-8"?>
<svg version="1.1" xmlns="http://www.w3.org/2000/svg" width="200" height="200">
<path d="M0 0 C66 0 132 0 200 0 C200 66 200 132 200 200 C134 200 68 200 0 200 C0 134 0 68 0 0 Z " fill="#0C334B" transform="translate(0,0)"/>
<path d="M0 0 C1.22991389 0.73591121 2.44028916 1.50583172 3.625 2.3125 C4.676875 3.01375 5.72875 3.715 6.8125 4.4375 C11.38380421 8.54541173 14.09955694 14.06389114 15.07421875 20.08984375 C15.4314323 28.87236997 12.52824812 35.85292483 6.625 42.3125 C3.71484375 44.11328125 3.71484375 44.11328125 0.5625 45.625 C-0.48035156 46.13675781 -1.52320313 46.64851563 -2.59765625 47.17578125 C-5.375 48.3125 -5.375 48.3125 -8.375 48.3125 C-8.375 54.2525 -8.375 60.1925 -8.375 66.3125 C-5.735 66.6425 -3.095 66.9725 -0.375 67.3125 C6.31582249 70.7917277 12.18550136 77.12953179 14.625 84.3125 C15.72050017 92.69916245 14.54993134 99.37057416 9.625 106.3125 C5.94813475 110.35705178 1.73198656 113.31411396 -3.375 115.3125 C-5.025 115.3125 -6.675 115.3125 -8.375 115.3125 C-8.375 121.9125 -8.375 128.5125 -8.375 135.3125 C-6.065 135.6425 -3.755 135.9725 -1.375 136.3125 C5.60605707 139.49684182 9.68924652 143.95719397 13.5 150.5625 C15.60089915 157.56549716 15.65862554 163.82908114 12.625 170.5625 C9.30223283 176.50750792 4.10360763 181.88160883 -2.375 184.3125 C-9.98520974 185.09493498 -18.37569484 185.88304816 -24.69921875 180.93359375 C-31.40085877 174.45065526 -35.27528482 169.63836051 -35.8125 160.0625 C-35.64811431 152.94556644 -33.24834746 147.44074119 -28.4375 142.203125 C-23.21140623 137.41253904 -19.59928462 135.3125 -12.375 135.3125 C-12.375 128.7125 -12.375 122.1125 -12.375 115.3125 C-15.015 114.9825 -17.655 114.6525 -20.375 114.3125 C-26.88181795 111.24531309 -30.98415844 105.47233329 -34.375 99.3125 C-36.77457555 92.11377334 -35.69289499 85.00624448 -32.375 78.3125 C-29.36582798 72.29415596 -24.49942106 68.87494323 -18.375 66.3125 C-16.395 66.3125 -14.415 66.3125 -12.375 66.3125 C-12.375 60.3725 -12.375 54.4325 -12.375 48.3125 C-13.695 48.10625 -15.015 47.9 -16.375 47.6875 C-23.08070278 46.18795702 -27.5337711 42.63826282 -31.75 37.3125 C-35.31693911 30.72738164 -36.34325496 24.745874 -35.375 17.3125 C-32.63519756 8.78731115 -27.73454051 3.8769356 -20.1875 -0.5625 C-13.5171873 -2.53078899 -6.42576125 -3.03404466 0 0 Z " fill="#1A3E55" transform="translate(58.375,8.6875)"/>
<path d="M0 0 C6.63521598 3.7434816 10.29687093 8.52301346 12.625 15.875 C13.80502799 23.56463296 11.95020001 29.47825683 7.625 35.875 C3.7110674 40.36957095 -1.605148 43.37825055 -7.5390625 44.16015625 C-14.71284578 44.44365628 -20.46738618 42.60525377 -26.125 38.1875 C-31.04020138 33.60972663 -33.54729244 28.74443306 -33.875 22 C-33.49779123 14.32615904 -31.15813575 8.09818917 -25.4375 2.875 C-17.90675681 -3.35320908 -8.80801948 -4.09460995 0 0 Z " fill="#11374E" transform="translate(58.375,11.125)"/>
<path d="M0 0 C5.18490494 3.08677604 8.96926147 7.764432 12.0625 12.875 C13.61077517 20.10028412 13.1273351 26.94724401 9.625 33.5 C6.18994834 38.60350532 2.54805553 41.85522015 -3.375 43.5 C-10.34357423 44.29687313 -17.51814638 44.6365509 -23.6953125 40.8984375 C-29.13915204 36.36612458 -32.85980625 30.51143009 -33.58984375 23.41015625 C-33.86204833 17.04056902 -32.85107733 11.62010754 -28.828125 6.55078125 C-21.13938615 -1.5632197 -10.73027817 -4.71545427 0 0 Z " fill="#0E354C" transform="translate(58.375,147.5)"/>
<path d="M0 0 C21 0 21 0 26.25 3.3125 C30.07180888 7.65298294 30.18299301 11.6671613 30.25 17.3125 C30.27578125 18.60800781 30.3015625 19.90351562 30.328125 21.23828125 C29.86653798 26.53004676 28.37358574 29.76042262 24.4375 33.3125 C20.90382984 35.75888703 19.13713925 36.11714281 14.875 36.0625 C13.26625 36.041875 11.6575 36.02125 10 36 C10 41.94 10 47.88 10 54 C6.7 54 3.4 54 0 54 C0 36.18 0 18.36 0 0 Z " fill="#F8F9FA" transform="translate(146,89)"/>
<path d="M0 0 C1.22991389 0.73591121 2.44028916 1.50583172 3.625 2.3125 C4.676875 3.01375 5.72875 3.715 6.8125 4.4375 C11.38380421 8.54541173 14.09955694 14.06389114 15.07421875 20.08984375 C15.4314323 28.87236997 12.52824812 35.85292483 6.625 42.3125 C3.71484375 44.11328125 3.71484375 44.11328125 0.5625 45.625 C-0.48035156 46.13675781 -1.52320313 46.64851563 -2.59765625 47.17578125 C-5.375 48.3125 -5.375 48.3125 -8.375 48.3125 C-8.375 54.2525 -8.375 60.1925 -8.375 66.3125 C-5.735 66.6425 -3.095 66.9725 -0.375 67.3125 C6.31582249 70.7917277 12.18550136 77.12953179 14.625 84.3125 C15.72050017 92.69916245 14.54993134 99.37057416 9.625 106.3125 C5.94813475 110.35705178 1.73198656 113.31411396 -3.375 115.3125 C-5.025 115.3125 -6.675 115.3125 -8.375 115.3125 C-8.375 121.9125 -8.375 128.5125 -8.375 135.3125 C-6.065 135.6425 -3.755 135.9725 -1.375 136.3125 C5.60605707 139.49684182 9.68924652 143.95719397 13.5 150.5625 C15.60089915 157.56549716 15.65862554 163.82908114 12.625 170.5625 C9.30223283 176.50750792 4.10360763 181.88160883 -2.375 184.3125 C-9.98520974 185.09493498 -18.37569484 185.88304816 -24.69921875 180.93359375 C-31.40085877 174.45065526 -35.27528482 169.63836051 -35.8125 160.0625 C-35.64811431 152.94556644 -33.24834746 147.44074119 -28.4375 142.203125 C-23.21140623 137.41253904 -19.59928462 135.3125 -12.375 135.3125 C-12.375 128.7125 -12.375 122.1125 -12.375 115.3125 C-15.015 114.9825 -17.655 114.6525 -20.375 114.3125 C-26.88181795 111.24531309 -30.98415844 105.47233329 -34.375 99.3125 C-36.77457555 92.11377334 -35.69289499 85.00624448 -32.375 78.3125 C-29.36582798 72.29415596 -24.49942106 68.87494323 -18.375 66.3125 C-16.395 66.3125 -14.415 66.3125 -12.375 66.3125 C-12.375 60.3725 -12.375 54.4325 -12.375 48.3125 C-13.695 48.10625 -15.015 47.9 -16.375 47.6875 C-23.08070278 46.18795702 -27.5337711 42.63826282 -31.75 37.3125 C-35.31693911 30.72738164 -36.34325496 24.745874 -35.375 17.3125 C-32.63519756 8.78731115 -27.73454051 3.8769356 -20.1875 -0.5625 C-13.5171873 -2.53078899 -6.42576125 -3.03404466 0 0 Z M-29.12109375 9.40234375 C-33.14098138 15.52609781 -34.55783618 22.04650634 -33.375 29.3125 C-31.06548945 35.68674912 -27.09518589 40.67574389 -21.375 44.3125 C-15.29666476 46.7888588 -9.01196105 47.57540898 -2.75390625 45.40234375 C4.21534874 42.18178164 7.69406233 38.77487099 11.4375 32.0625 C13.36481114 25.97625428 13.3622835 20.72915147 11.5 14.625 C7.85828922 8.19131095 4.14680207 3.70639525 -2.8828125 0.97265625 C-13.44775746 -1.825895 -22.41058252 0.79021625 -29.12109375 9.40234375 Z M-28.375 75.3125 C-32.83199989 81.05471944 -34.14342512 86.21425649 -33.78515625 93.453125 C-32.71106684 100.94106262 -29.05246615 105.09900304 -23.375 109.8671875 C-17.36416586 114.21095436 -11.62931504 113.99096112 -4.375 113.3125 C2.27660118 111.58962625 6.80622025 106.85489114 10.625 101.3125 C13.52916837 95.27105275 13.75656043 88.98612411 11.78515625 82.5859375 C9.04566074 76.47972191 5.50515034 72.52189503 -0.375 69.3125 C-10.62562102 65.4243334 -20.7158474 67.3052041 -28.375 75.3125 Z M-28.75 145.75 C-33.24480529 151.42957734 -34.1438238 157.23691845 -33.375 164.3125 C-31.90794479 170.60479147 -28.92156756 175.54066807 -23.765625 179.5703125 C-17.50130454 183.39850834 -10.47491285 183.10875191 -3.375 182.3125 C2.61158298 180.79690937 6.03365264 177.34427436 9.4375 172.3125 C12.84358222 166.57594046 13.4166742 160.85903665 12.625 154.3125 C10.74389286 147.68100206 6.20513379 143.15728492 0.625 139.3125 C-10.4701273 133.8200446 -20.81932468 137.19171728 -28.75 145.75 Z " fill="#E1E6E9" transform="translate(58.375,8.6875)"/>
<path d="M0 0 C2.97 0 5.94 0 9 0 C9 5.28 9 10.56 9 16 C11.3203125 15.9071875 11.3203125 15.9071875 13.6875 15.8125 C18.00837237 15.83687728 20.69169055 15.98360021 24 19 C28.08416612 24.1879948 28.62036816 28.50700746 28.390625 35.0546875 C27.83644908 39.23317397 26.60293 42.66600015 24 46 C20 49 20 49 0 49 C0 32.83 0 16.66 0 0 Z " fill="#F9FAFA" transform="translate(111,144)"/>
<path d="M0 0 C4.31015418 2.96921733 7.13433349 5.99028015 8.33203125 11.1953125 C8.98421513 20.62922815 3.93285091 28.77636229 -2.0625 35.6875 C-3.09127731 36.78308103 -4.1279352 37.87166559 -5.1875 38.9375 C-8.80117172 38.694886 -10.00051139 38.13442821 -12.5390625 35.4609375 C-23.7809266 19.89230784 -23.7809266 19.89230784 -22.1875 8.9375 C-20.10680717 4.44320348 -17.45505353 1.85092675 -13.11328125 -0.37109375 C-8.57051041 -2.00206827 -4.56877492 -1.52292497 0 0 Z " fill="#F9FAFA" transform="translate(130.1875,89.0625)"/>
<path d="M0 0 C3.031875 0.0825 6.06375 0.165 9.1875 0.25 C9.1875 11.14 9.1875 22.03 9.1875 33.25 C6.320625 33.311875 3.45375 33.37375 0.5 33.4375 C-0.84130981 33.47846802 -0.84130981 33.47846802 -2.2097168 33.52026367 C-6.92398391 33.5694312 -9.98476929 33.30782662 -13.8125 30.25 C-18.77042608 24.74119324 -19.16331251 20.4076335 -19.09375 13.19921875 C-18.60981451 8.12461747 -16.15096509 5.66053628 -12.78125 2.109375 C-8.52294973 -0.5576657 -4.9053642 -0.18874816 0 0 Z " fill="#F9FAFB" transform="translate(93.8125,159.75)"/>
<path d="M0 0 C3.75914097 2.53333414 6.24489479 4.63289316 7.875 8.9375 C8.28578262 13.69009886 8.10295183 18.15051149 7.875 22.9375 C1.935 22.9375 -4.005 22.9375 -10.125 22.9375 C-9.795 24.2575 -9.465 25.5775 -9.125 26.9375 C-7.68708484 26.79581863 -6.2496763 26.64898957 -4.8125 26.5 C-4.01199219 26.41878906 -3.21148437 26.33757813 -2.38671875 26.25390625 C0.03587179 25.98484307 0.03587179 25.98484307 2.875 24.9375 C7.875 30.6875 7.875 30.6875 7.875 32.9375 C2.24818666 36.68870889 -3.51172142 36.75395415 -10.125 35.9375 C-14.71235788 33.764541 -16.99508551 31.49987365 -19.125 26.9375 C-19.58184425 23.78383666 -19.58944642 20.68212688 -19.5625 17.5 C-19.58248047 16.66662109 -19.60246094 15.83324219 -19.62304688 14.97460938 C-19.6186944 9.46872621 -18.78709702 6.29553059 -15.125 1.9375 C-10.31403728 -1.96328058 -5.75223262 -1.95575909 0 0 Z " fill="#F6F8F8" transform="translate(95.125,21.0625)"/>
<path d="M0 0 C3.3 0 6.6 0 10 0 C10 4.62 10 9.24 10 14 C14.62 14 19.24 14 24 14 C24 17.3 24 20.6 24 24 C19.38 24 14.76 24 10 24 C10.12375 25.918125 10.2475 27.83625 10.375 29.8125 C10.44460937 30.89144531 10.51421875 31.97039062 10.5859375 33.08203125 C10.81195733 36.18626186 10.81195733 36.18626186 13 39 C15.88595946 39.58481121 15.88595946 39.58481121 19.125 39.6875 C20.22070312 39.75324219 21.31640625 39.81898437 22.4453125 39.88671875 C23.70988281 39.94279297 23.70988281 39.94279297 25 40 C25 43.3 25 46.6 25 50 C17.84520503 50.49080148 11.85920677 50.83619499 5.68359375 46.875 C0.66871467 41.28998386 -0.58706389 35.43291011 -0.390625 28.125 C-0.38496521 27.31506592 -0.37930542 26.50513184 -0.37347412 25.6706543 C-0.3512902 23.11313833 -0.30113203 20.55708409 -0.25 18 C-0.22991157 16.25392665 -0.21166493 14.50783108 -0.1953125 12.76171875 C-0.15148505 8.50725925 -0.08258721 4.25387643 0 0 Z " fill="#F5F7F8" transform="translate(75,75)"/>
<path d="M0 0 C3.3 0 6.6 0 10 0 C10 4.62 10 9.24 10 14 C14.62 14 19.24 14 24 14 C24 17.3 24 20.6 24 24 C19.38 24 14.76 24 10 24 C10.12375 25.918125 10.2475 27.83625 10.375 29.8125 C10.44460937 30.89144531 10.51421875 31.97039063 10.5859375 33.08203125 C10.81195733 36.18626186 10.81195733 36.18626186 13 39 C15.6556728 39.58348752 15.6556728 39.58348752 18.625 39.6875 C19.62789062 39.75324219 20.63078125 39.81898437 21.6640625 39.88671875 C22.43492187 39.92410156 23.20578125 39.96148437 24 40 C24 42.97 24 45.94 24 49 C11.38750712 49.62198595 11.38750712 49.62198595 6.375 47.375 C2.54217092 43.54217092 -0.18998935 40.27949038 -0.45410156 34.73876953 C-0.45347483 33.11997902 -0.43126389 31.50109294 -0.390625 29.8828125 C-0.38496521 29.02565643 -0.37930542 28.16850037 -0.37347412 27.28536987 C-0.35119639 24.5646632 -0.30101774 21.84530432 -0.25 19.125 C-0.2299238 17.27345661 -0.211675 15.42189244 -0.1953125 13.5703125 C-0.15136001 9.0463607 -0.08239359 4.52340836 0 0 Z " fill="#F9FAFB" transform="translate(147,7)"/>
<path d="M0 0 C2.64 0 5.28 0 8 0 C10.97 5.94 13.94 11.88 17 18 C17.33 12.06 17.66 6.12 18 0 C20.64 0 23.28 0 26 0 C26 11.88 26 23.76 26 36 C23.36 36 20.72 36 18 36 C15.03 30.06 12.06 24.12 9 18 C8.67 23.94 8.34 29.88 8 36 C5.36 36 2.72 36 0 36 C0 24.12 0 12.24 0 0 Z " fill="#EDF0F2" transform="translate(35,14)"/>
<path d="M0 0 C3.70390021 2.02666238 5.65363011 3.48044516 8 7 C8.07905064 9.33199388 8.08798769 11.66832622 8 14 C5.36 14 2.72 14 0 14 C-0.66 12.35 -1.32 10.7 -2 9 C-3.65 9.33 -5.3 9.66 -7 10 C-6.87067916 12.40470378 -6.87067916 12.40470378 -6 15 C-3.85834368 16.75736115 -3.85834368 16.75736115 -1.1875 18.0625 C2.45096355 20.0026556 5.38787666 21.76168271 8 25 C8.95909186 29.00834252 8.90481588 33.18295171 7.046875 36.9140625 C4.53347515 40.14330408 1.98649074 42.16561822 -2 43 C-6.62199861 43.15061503 -9.25374177 42.61647419 -12.875 39.625 C-16.28743617 35.40963768 -17.24012046 33.40271038 -17 28 C-14.03 28 -11.06 28 -8 28 C-7.67 29.65 -7.34 31.3 -7 33 C-5.35 33 -3.7 33 -2 33 C-1.67 31.35 -1.34 29.7 -1 28 C-1.74765625 27.62488281 -2.4953125 27.24976562 -3.265625 26.86328125 C-9.30650019 23.72424008 -13.86489235 21.27021529 -17 15 C-17.43310635 11.18866411 -17.1339136 9.26267667 -15.375 5.8125 C-11.04084986 0.67995379 -6.64702075 -0.83087759 0 0 Z " fill="#F5F7F8" transform="translate(52,78)"/>
<path d="M0 0 C3.44980157 -0.48230236 6.5736796 -0.7114192 10 0 C12.48490881 2.49037014 13.47851496 4.75416525 15 8 C16.32 5.36 17.64 2.72 19 0 C22.3 0 25.6 0 29 0 C28.41089844 1.08539062 27.82179687 2.17078125 27.21484375 3.2890625 C26.45488131 4.73392937 25.69581352 6.17926704 24.9375 7.625 C24.54755859 8.33785156 24.15761719 9.05070312 23.75585938 9.78515625 C22.02856537 13.11745797 20.9933252 15.33085153 21.03125 19.1328125 C22.16586724 22.49091354 23.69115509 25.24072617 25.5625 28.25 C29 33.81086519 29 33.81086519 29 36 C25.87228538 36.4906219 23.10352525 36.70581845 20 36 C17.71071431 33.61663407 16.33530634 31.00611679 15 28 C14.566875 28.5775 14.13375 29.155 13.6875 29.75 C13.130625 30.4925 12.57375 31.235 12 32 C11.62875 32.7425 11.2575 33.485 10.875 34.25 C8.50852703 36.4587081 7.48453511 36.25 4.3125 36.25 C2.8740202 36.18576167 1.43583001 36.10836453 0 36 C1.05454694 32.99258836 2.23342799 30.65856135 4.04296875 28.01171875 C7.43491233 22.86459475 7.43491233 22.86459475 9 17 C7.46703894 10.99634761 3.54641037 5.97248015 0 1 C0 0.67 0 0.34 0 0 Z " fill="#F4F5F6" transform="translate(109,21)"/>
<path d="M0 0 C2.65683189 1.49748707 4.84652751 2.84652751 7 5 C7.04063832 6.66617115 7.042721 8.33388095 7 10 C4.36 10 1.72 10 -1 10 C-1 9.34 -1 8.68 -1 8 C-2.32 8.33 -3.64 8.66 -5 9 C-5 9.99 -5 10.98 -5 12 C-4.32453125 12.09796875 -3.6490625 12.1959375 -2.953125 12.296875 C0.93929188 12.94936107 4.21136588 13.53057493 7.625 15.5625 C9.7431966 19.31748489 9.89020972 22.80329704 9 27 C6.81840855 29.75569447 5.12822506 31.43588747 2 33 C-3.37735191 33.60614273 -7.59564427 33.98304901 -12.125 30.8125 C-13.96190858 28.05713713 -14.71956235 26.27177256 -15 23 C-8.84765625 22.90234375 -8.84765625 22.90234375 -7 23 C-6.67 23.33 -6.34 23.66 -6 24 C-4.00041636 24.04080783 -1.99954746 24.04254356 0 24 C0 23.01 0 22.02 0 21 C-0.88751953 20.97873047 -0.88751953 20.97873047 -1.79296875 20.95703125 C-5.93222228 20.7071905 -8.50301949 20.31441624 -12.0625 18.0625 C-14.43739289 14.30863704 -14.78530799 11.77111757 -14.54296875 7.3828125 C-13.9557158 4.80565928 -13.39263551 3.68985596 -11.5 1.875 C-7.37770353 -0.33337311 -4.5697473 -1.01751829 0 0 Z " fill="#F8F9F9" transform="translate(161,160)"/>
<path d="M0 0 C0 2 0 2 -2.4375 4.5 C-3.283125 5.325 -4.12875 6.15 -5 7 C-6.43304064 9.86608129 -6.30644155 11.81300783 -6 15 C-3.03980907 21.95644869 3.58199796 24.58917502 10 28 C9.125 32.875 9.125 32.875 8 34 C5.5 34.125 5.5 34.125 3 34 C2 33 2 33 1.9375 30.4375 C1.958125 29.633125 1.97875 28.82875 2 28 C-0.97 28 -3.94 28 -7 28 C-5.35443161 35.49907837 -5.35443161 35.49907837 -0.3125 40.6875 C3.1656122 42.06561993 6.28805752 42.62880575 10 43 C10 43.33 10 43.66 10 44 C3.34501174 44.55050454 -1.68618698 44.56601847 -7.21484375 40.55859375 C-12.50017033 35.9440526 -16.35802494 31.36419585 -17.40625 24.23828125 C-17.65942736 16.33703796 -16.10114301 11.10574448 -11 5 C-7.48872868 1.65485334 -5.01269793 0 0 0 Z " fill="#133950" transform="translate(42,78)"/>
<path d="M0 0 C2.64 0 5.28 0 8 0 C8 9.57 8 19.14 8 29 C12.62 29 17.24 29 22 29 C22 31.31 22 33.62 22 36 C14.74 36 7.48 36 0 36 C0 24.12 0 12.24 0 0 Z " fill="#ECEFF1" transform="translate(37,150)"/>
<path d="M0 0 C6.47172825 3.93025557 11.47558777 10.25718695 13.5625 17.5 C14.66675661 25.53998072 13.27115722 31.86045456 8.5625 38.5 C4.02378376 43.35328073 -0.30094445 47.17751864 -7.046875 47.87109375 C-20.45847363 48.27197075 -20.45847363 48.27197075 -25.76171875 44.12109375 C-32.46335877 37.63815526 -36.33778482 32.82586051 -36.875 23.25 C-36.71061431 16.13306644 -34.31084746 10.62824119 -29.5 5.390625 C-21.48743829 -1.95422324 -10.36304864 -4.59225293 0 0 Z M-29.8125 8.9375 C-34.30730529 14.61707734 -35.2063238 20.42441845 -34.4375 27.5 C-32.97044479 33.79229147 -29.98406756 38.72816807 -24.828125 42.7578125 C-18.56380454 46.58600834 -11.53741285 46.29625191 -4.4375 45.5 C1.54908298 43.98440937 4.97115264 40.53177436 8.375 35.5 C11.78108222 29.76344046 12.3541742 24.04653665 11.5625 17.5 C9.68139286 10.86850206 5.14263379 6.34478492 -0.4375 2.5 C-11.5326273 -2.9924554 -21.88182468 0.37921728 -29.8125 8.9375 Z " fill="#D0D8DC" transform="translate(59.4375,145.5)"/>
<path d="M0 0 C1.22991389 0.73591121 2.44028916 1.50583172 3.625 2.3125 C4.676875 3.01375 5.72875 3.715 6.8125 4.4375 C11.38380421 8.54541173 14.09955694 14.06389114 15.07421875 20.08984375 C15.39378759 27.94682931 13.00077419 33.62595385 8.8125 40.125 C5.3237686 43.6137314 1.74279885 46.1322618 -3.3125 46.5625 C-3.993125 46.48 -4.67375 46.3975 -5.375 46.3125 C-2.375 44.3125 -2.375 44.3125 -0.5078125 43.3046875 C5.89473669 39.74217959 9.3121369 35.25108929 11.625 28.3125 C12.35137145 20.32241408 10.99566973 14.8685046 6.5 8.125 C2.57074768 3.76306215 -2.37220215 1.73109771 -8.12109375 0.9296875 C-14.3742451 0.6695009 -19.28186366 1.57675991 -24.375 5.3125 C-29.9243664 10.73854715 -32.43448226 16.57070431 -32.875 24.25 C-32.66240384 30.53125012 -30.07829235 35.26758279 -25.953125 39.9140625 C-22.39560681 43.18468406 -18.96540908 44.30261 -14.375 45.3125 C-16 46.5 -16 46.5 -18.375 47.3125 C-26.26979616 44.28896105 -31.09531208 39.21382902 -34.625 31.625 C-36.45914101 23.52421055 -36.03952393 16.83950726 -31.92578125 9.5390625 C-24.8283292 -0.6512339 -11.65899788 -5.50501627 0 0 Z " fill="#D7DDE1" transform="translate(58.375,8.6875)"/>
<path d="M0 0 C2.4375 0.8125 2.4375 0.8125 4.4375 2.8125 C4.703125 5.5625 4.703125 5.5625 4.6875 8.8125 C4.69265625 9.885 4.6978125 10.9575 4.703125 12.0625 C4.4375 14.8125 4.4375 14.8125 2.4375 16.8125 C-0.5625 17.125 -0.5625 17.125 -3.5625 16.8125 C-5.78514871 13.47852694 -5.85925463 12.21735109 -5.875 8.3125 C-5.89175781 7.3534375 -5.90851563 6.394375 -5.92578125 5.40625 C-5.5625 2.8125 -5.5625 2.8125 -4.203125 0.95703125 C-2.5625 -0.1875 -2.5625 -0.1875 0 0 Z " fill="#153A51" transform="translate(161.5625,98.1875)"/>
<path d="M0 0 C7.99887612 1.90449431 12.50845786 5.20687707 17.3203125 11.8125 C20.72731547 17.53054695 20.95295814 23.5131972 20 30 C17.28493492 38.55365637 12.28000679 43.44845749 4.75 47.9375 C2 49 2 49 -1 48 C0.99146684 46.00853316 2.21899622 45.39651519 4.75 44.3125 C10.0665945 41.7218685 13.60779846 37.93749742 16.13671875 32.6015625 C18.27733414 26.1506582 17.73241215 19.77564549 14.9375 13.625 C11.61082168 7.72131735 7.51755237 4.60445495 1.0625 2.6875 C0.051875 2.460625 -0.95875 2.23375 -2 2 C-1.34 1.34 -0.68 0.68 0 0 Z " fill="#DAE0E4" transform="translate(53,75)"/>
<path d="M0 0 C3.625 0.375 3.625 0.375 7 1 C7 5.29 7 9.58 7 14 C3.625 14.625 3.625 14.625 0 15 C-2 13 -2 13 -2.265625 10.46875 C-2.26046875 9.4890625 -2.2553125 8.509375 -2.25 7.5 C-2.25515625 6.5203125 -2.2603125 5.540625 -2.265625 4.53125 C-2 2 -2 2 0 0 Z " fill="#143950" transform="translate(122,169)"/>
<path d="M0 0 C2 2 2 2 2.265625 4.53125 C2.26046875 5.5109375 2.2553125 6.490625 2.25 7.5 C2.25515625 8.4796875 2.2603125 9.459375 2.265625 10.46875 C2 13 2 13 0 15 C-2.5 15.25 -2.5 15.25 -5 15 C-7 13 -7 13 -7.1953125 10.1796875 C-7.17210938 9.08914062 -7.14890625 7.99859375 -7.125 6.875 C-7.10695313 5.77929688 -7.08890625 4.68359375 -7.0703125 3.5546875 C-7.04710938 2.71164063 -7.02390625 1.86859375 -7 1 C-4.48718205 -0.25640898 -2.78302919 -0.20872719 0 0 Z " fill="#11374F" transform="translate(92,169)"/>
<path d="M0 0 C-1.17875605 2.78615065 -2.4831849 4.55566264 -4.5 6.875 C-8.54782099 11.66313043 -9.40899521 16.55378969 -9.25390625 22.6953125 C-8.6034619 28.59934581 -6.27052823 33.84489145 -2 38 C4.05975033 42.21101294 10.81351298 43.08971164 18 44 C18 44.33 18 44.66 18 45 C4.53432645 45.92371236 4.53432645 45.92371236 -1.21875 41.62109375 C-8.10636848 35.35275676 -11.9048861 30.24384284 -12.4375 20.75 C-12.29722306 13.39548035 -9.34521598 7.20728241 -4.3125 1.875 C-2 0 -2 0 0 0 Z " fill="#D9DFE3" transform="translate(35,148)"/>
<path d="M0 0 C4.29 0 8.58 0 13 0 C12.34 0.66 11.68 1.32 11 2 C10.01 2 9.02 2 8 2 C8 7.94 8 13.88 8 20 C8.99 20.33 9.98 20.66 11 21 C8.03 21 5.06 21 2 21 C2.66 20.67 3.32 20.34 4 20 C4 14.06 4 8.12 4 2 C2.68 1.67 1.36 1.34 0 1 C0 0.67 0 0.34 0 0 Z " fill="#F8F9FA" transform="translate(42,55)"/>
<path d="M0 0 C0.66 0.66 1.32 1.32 2 2 C1.01 2 0.02 2 -1 2 C-1 8.6 -1 15.2 -1 22 C-0.34 22.33 0.32 22.66 1 23 C-1.64 23 -4.28 23 -7 23 C-6.34 22.67 -5.68 22.34 -5 22 C-5.33 15.07 -5.66 8.14 -6 1 C-4.02 0.67 -2.04 0.34 0 0 Z " fill="#FEFEFE" transform="translate(51,122)"/>
<path d="M0 0 C2.4375 0.8125 2.4375 0.8125 4.4375 2.8125 C4.6875 5.3125 4.6875 5.3125 4.4375 7.8125 C2.4375 9.8125 2.4375 9.8125 -0.5625 10.0625 C-3.5625 9.8125 -3.5625 9.8125 -5.5625 7.8125 C-5.93046448 4.94237704 -5.93759409 3.40475382 -4.375 0.9375 C-2.5625 -0.1875 -2.5625 -0.1875 0 0 Z " fill="#193E54" transform="translate(123.5625,98.1875)"/>
<path d="M0 0 C0.33 0 0.66 0 1 0 C1.01417969 0.68964844 1.02835938 1.37929688 1.04296875 2.08984375 C1.46902498 10.48430298 3.55606296 17.12678846 9.875 22.9375 C13.35172188 25.23213644 15.96759384 26.11287065 20 27 C18.375 28.1875 18.375 28.1875 16 29 C9.15903015 26.3800541 4.64983533 22.29281953 1 16 C-1.29315283 10.61109084 -1.87067562 5.61202687 0 0 Z " fill="#DDE3E6" transform="translate(24,27)"/>
<path d="M0 0 C3.63488209 2.1731123 5.96302954 4.97260311 8.4375 8.375 C4.75186229 8.375 3.74358408 7.10363594 1.1328125 4.6640625 C-2.99242292 1.52736276 -6.92202492 1.1010755 -12 1.125 C-13.09183594 1.11984375 -14.18367188 1.1146875 -15.30859375 1.109375 C-18.67951578 1.38455231 -21.41125625 2.17724219 -24.5625 3.375 C-23.5625 0.375 -23.5625 0.375 -21.42578125 -0.7890625 C-14.7395626 -2.74110996 -6.41801808 -2.93955026 0 0 Z " fill="#D4DBDF" transform="translate(59.5625,145.625)"/>
<path d="M0 0 C1.28871665 1.93307497 2.54202443 3.8904687 3.75 5.875 C7.00214295 10.39186521 10.8046052 13.81945109 16 16 C18.58532701 16.45064632 18.58532701 16.45064632 21.25 16.625 C22.14203125 16.69976562 23.0340625 16.77453125 23.953125 16.8515625 C24.96632813 16.92503906 24.96632813 16.92503906 26 17 C26 17.33 26 17.66 26 18 C19.12241546 19.18579044 15.24938594 18.76008405 9 15.375 C4.38650476 11.7226496 -0.10280311 7.033324 -1 1 C-0.67 0.67 -0.34 0.34 0 0 Z " fill="#D8DEE2" transform="translate(25,105)"/>
<path d="M0 0 C3.125 0.375 3.125 0.375 6 1 C6.33 2.98 6.66 4.96 7 7 C4.03 7 1.06 7 -2 7 C-2.125 4.625 -2.125 4.625 -2 2 C-1.34 1.34 -0.68 0.68 0 0 Z " fill="#26485E" transform="translate(87,29)"/>
<path d="M0 0 C6.49574846 2.2907712 10.26341084 6.48273011 13.8125 12.25 C14.8125 15 14.8125 15 13.8125 18 C12.69333812 16.32125718 11.59593947 14.62550202 10.5859375 12.87890625 C7.09270045 7.09262254 4.05483887 4.4388085 -2.1875 2 C-3.52638445 1.34455308 -4.8613147 0.68077512 -6.1875 0 C-3.59539397 -1.29605302 -2.73687988 -0.82907205 0 0 Z " fill="#E7EBED" transform="translate(57.1875,76)"/>
<path d="M0 0 C3.90682108 3.51613897 5.73218011 6.51657924 6.30078125 11.7890625 C6.30464844 12.72492188 6.30851562 13.66078125 6.3125 14.625 C6.32925781 15.56601563 6.34601563 16.50703125 6.36328125 17.4765625 C5.9470039 20.36812347 5.25682026 21.22550808 3 23 C3.03480469 22.09378906 3.06960937 21.18757813 3.10546875 20.25390625 C3.27204671 12.75789787 2.87210443 6.94091903 0 0 Z " fill="#DCE2E5" transform="translate(67,154)"/>
<path d="M0 0 C3.96 0 7.92 0 12 0 C12 0.99 12 1.98 12 3 C9.59454362 4.20272819 8.05003047 4.10071472 5.375 4.0625 C4.14910156 4.04896484 4.14910156 4.04896484 2.8984375 4.03515625 C1.95871094 4.01775391 1.95871094 4.01775391 1 4 C0.67 2.68 0.34 1.36 0 0 Z " fill="#143950" transform="translate(85,44)"/>
<path d="M0 0 C0.56847656 0.40992188 1.13695313 0.81984375 1.72265625 1.2421875 C8.95257612 6.28744043 15.31841103 8.08614853 24 9 C24 9.33 24 9.66 24 10 C16.60145448 10.50752218 10.75157775 10.86959692 4.5859375 6.38671875 C2.97183106 4.97536952 1.4217935 3.6070575 0 2 C0 1.34 0 0.68 0 0 Z " fill="#E6EAEC" transform="translate(29,183)"/>
<path d="M0 0 C0.99 0.33 1.98 0.66 3 1 C-1.039841 4.69322743 -4.82100437 7.99902442 -10 10 C-10.99 9.67 -11.98 9.34 -13 9 C-10.56968833 6.56968833 -8.06519015 5.52542424 -4.97265625 4.09765625 C-2.93232256 2.96234186 -1.56336271 1.72018907 0 0 Z " fill="#D3DADE" transform="translate(65,114)"/>
<path d="M0 0 C1.32 0 2.64 0 4 0 C4 0.66 4 1.32 4 2 C6.64 2 9.28 2 12 2 C12 2.33 12 2.66 12 3 C10.02 3.33 8.04 3.66 6 4 C6 4.33 6 4.66 6 5 C4.02 5 2.04 5 0 5 C-0.5625 3.0625 -0.5625 3.0625 -1 1 C-0.67 0.67 -0.34 0.34 0 0 Z " fill="#37566A" transform="translate(156,168)"/>
<path d="M0 0 C0.99 0.33 1.98 0.66 3 1 C2.49339844 1.79664063 2.49339844 1.79664063 1.9765625 2.609375 C1.30753906 3.66898438 1.30753906 3.66898438 0.625 4.75 C0.18414063 5.44609375 -0.25671875 6.1421875 -0.7109375 6.859375 C-2.02272504 8.96507603 -2.02272504 8.96507603 -3.0390625 11.140625 C-4 13 -4 13 -6 15 C-5.61471495 8.83543922 -3.52913975 5.01372252 0 0 Z " fill="#C8D1D6" transform="translate(29,15)"/>
<path d="M0 0 C0 0.33 0 0.66 0 1 C-0.65226562 1.04898438 -1.30453125 1.09796875 -1.9765625 1.1484375 C-6.93279853 1.57242229 -11.33019451 2.15665573 -16 4 C-15 1 -15 1 -13.0625 -0.25 C-8.60405097 -1.34186507 -4.50284228 -0.64701035 0 0 Z " fill="#BEC8CF" transform="translate(51,145)"/>
<path d="M0 0 C2.97 0.99 5.94 1.98 9 3 C9 3.99 9 4.98 9 6 C5.37 4.68 1.74 3.36 -2 2 C-1.34 1.34 -0.68 0.68 0 0 Z " fill="#DAE0E4" transform="translate(53,75)"/>
<path d="M0 0 C0 0.66 0 1.32 0 2 C-2.8125 4.1875 -2.8125 4.1875 -6 6 C-6.99 5.67 -7.98 5.34 -9 5 C-7.87926138 4.16094435 -6.75325453 3.32892169 -5.625 2.5 C-4.99851562 2.0359375 -4.37203125 1.571875 -3.7265625 1.09375 C-2 0 -2 0 0 0 Z " fill="#DDE2E6" transform="translate(39,9)"/>
</svg>
