<?xml version="1.0" encoding="UTF-8" standalone="no"?>
<!-- Created with Inkscape (http://www.inkscape.org/) -->

<svg
   width="127.45414mm"
   height="127.45411mm"
   viewBox="0 0 127.45413 127.4541"
   version="1.1"
   id="svg1"
   inkscape:version="1.3.2 (091e20e, 2023-11-25, custom)"
   sodipodi:docname="Stuffs For Kai Before I Forget Again lmfaoooo.svg"
   xml:space="preserve"
   xmlns:inkscape="http://www.inkscape.org/namespaces/inkscape"
   xmlns:sodipodi="http://sodipodi.sourceforge.net/DTD/sodipodi-0.dtd"
   xmlns="http://www.w3.org/2000/svg"
   xmlns:svg="http://www.w3.org/2000/svg"><sodipodi:namedview
     id="namedview1"
     pagecolor="#bbbbbb"
     bordercolor="#000000"
     borderopacity="0.25"
     inkscape:showpageshadow="2"
     inkscape:pageopacity="0.0"
     inkscape:pagecheckerboard="true"
     inkscape:deskcolor="#000000"
     inkscape:document-units="mm"
     showborder="false"
     inkscape:zoom="0.45254834"
     inkscape:cx="-1098.2252"
     inkscape:cy="4704.4698"
     inkscape:window-width="2426"
     inkscape:window-height="1360"
     inkscape:window-x="-5"
     inkscape:window-y="0"
     inkscape:window-maximized="0"
     inkscape:current-layer="layer1"
     showguides="false" /><defs
     id="defs1" /><g
     inkscape:label="Layer 1"
     inkscape:groupmode="layer"
     id="layer1"
     transform="translate(644.4443,-1179.2134)"><rect
       style="fill:#4f3300;fill-opacity:1;fill-rule:evenodd;stroke-width:0;stroke-linecap:round;stroke-linejoin:round;paint-order:stroke markers fill"
       id="rect68"
       width="127.45415"
       height="127.45415"
       x="-644.44434"
       y="1179.2134"
       ry="16.299999" /><path
       d="m -605.29646,1212.2741 c -11.47001,0 -20.15228,6.452 -20.15228,16.4883 0,9.638 8.60266,13.3021 16.72725,16.4882 7.00946,2.7082 13.62067,5.1774 13.62067,10.7531 -0.0796,4.6199 -4.14237,6.4515 -9.55878,6.4515 -6.69083,0 -12.26583,-2.8676 -15.69091,-8.1247 l -8.28422,8.2048 c 5.01814,6.6112 13.9393,11.0716 23.57729,11.0716 12.18691,0 22.14312,-5.6555 22.14312,-17.7628 0,-11.5497 -10.35462,-15.6115 -18.95712,-19.0366 -6.05363,-2.3896 -11.23118,-4.4609 -11.23118,-8.5232 0,-3.664 3.34542,-5.9741 8.1246,-5.9741 5.8943,0 10.11626,2.0711 13.78029,6.2131 l 7.80615,-7.567 c -4.85882,-5.1775 -12.50585,-8.6822 -21.90488,-8.6822 z"
       style="font-weight:bold;font-size:50.8px;font-family:Orkney;-inkscape-font-specification:'Orkney Bold';fill:#ffffff;fill-opacity:1;fill-rule:evenodd;stroke-width:0;stroke-linecap:round;stroke-linejoin:round;paint-order:stroke markers fill"
       id="path69" /><path
       d="m -615.25472,1192.906 c -1.80214,0 -3.25303,1.4509 -3.25303,3.253 0,1.8022 1.45089,3.253 3.25303,3.253 h 64.68081 c 1.80213,0 3.25303,-1.4508 3.25303,-3.253 0,-1.8021 -1.4509,-3.253 -3.25303,-3.253 z"
       style="fill:#de9100;fill-rule:evenodd;stroke-width:0;stroke-linecap:round;stroke-linejoin:round;paint-order:stroke markers fill"
       id="path71"
       sodipodi:nodetypes="sssssss" /><path
       d="m -615.25472,1286.469 c -1.80214,0 -3.25303,1.4509 -3.25303,3.253 0,1.8022 1.45089,3.253 3.25303,3.253 h 64.68081 c 1.80213,0 3.25303,-1.4508 3.25303,-3.253 0,-1.8021 -1.4509,-3.253 -3.25303,-3.253 z"
       style="fill:#ffffff;fill-opacity:1;fill-rule:evenodd;stroke-width:0;stroke-linecap:round;stroke-linejoin:round;paint-order:stroke markers fill"
       id="path72"
       sodipodi:nodetypes="sssssss" /><path
       d="m -575.45817,1213.3125 v 60.0083 h 27.04391 c 9.84133,0 17.60251,-6.0009 17.60251,-16.3223 0,-7.921 -4.56099,-12.642 -11.2019,-14.6423 4.16057,-2.4003 6.7213,-6.4806 6.7213,-12.4814 0,-10.4014 -7.8415,-16.5623 -17.76284,-16.5623 z m 12.00198,10.4816 h 8.96118 c 4.00055,0 7.20068,3.3607 7.20068,7.2812 0,3.9206 -3.20013,7.3602 -7.20068,7.3602 h -8.96118 z m 0,24.4035 h 13.28143 c 4.08055,0 7.28128,3.36 7.28128,7.2805 0,3.9206 -3.20073,7.2811 -7.28128,7.2811 h -13.28143 z"
       style="font-weight:bold;font-size:50.8px;font-family:Orkney;-inkscape-font-specification:'Orkney Bold';fill:#de9100;fill-opacity:1;fill-rule:evenodd;stroke-width:0;stroke-linecap:round;stroke-linejoin:round;paint-order:stroke markers fill"
       id="path74" /></g></svg>
