<?xml version="1.0" encoding="UTF-8" standalone="no"?>
<!-- Created with Inkscape (http://www.inkscape.org/) -->

<svg
   width="127.45415mm"
   height="127.45418mm"
   viewBox="0 0 127.45415 127.45417"
   version="1.1"
   id="svg1"
   inkscape:version="1.3.2 (091e20e, 2023-11-25, custom)"
   sodipodi:docname="Stuffs For Kai Before I Forget Again lmfaoooo.svg"
   xml:space="preserve"
   xmlns:inkscape="http://www.inkscape.org/namespaces/inkscape"
   xmlns:sodipodi="http://sodipodi.sourceforge.net/DTD/sodipodi-0.dtd"
   xmlns="http://www.w3.org/2000/svg"
   xmlns:svg="http://www.w3.org/2000/svg"><sodipodi:namedview
     id="namedview1"
     pagecolor="#bbbbbb"
     bordercolor="#000000"
     borderopacity="0.25"
     inkscape:showpageshadow="2"
     inkscape:pageopacity="0.0"
     inkscape:pagecheckerboard="true"
     inkscape:deskcolor="#000000"
     inkscape:document-units="mm"
     showborder="false"
     inkscape:zoom="0.45254834"
     inkscape:cx="-1098.2252"
     inkscape:cy="4704.4698"
     inkscape:window-width="2426"
     inkscape:window-height="1360"
     inkscape:window-x="-5"
     inkscape:window-y="0"
     inkscape:window-maximized="0"
     inkscape:current-layer="layer1"
     showguides="false" /><defs
     id="defs1" /><g
     inkscape:label="Layer 1"
     inkscape:groupmode="layer"
     id="layer1"
     transform="translate(389.51671,-1012.8149)"><rect
       style="fill:#0c1823;fill-opacity:1;fill-rule:evenodd;stroke-width:0;stroke-linecap:round;stroke-linejoin:round;paint-order:stroke markers fill"
       id="rect20"
       width="127.45415"
       height="127.45415"
       x="-389.51669"
       y="1012.815"
       ry="16.299999" /><path
       d="m -293.82454,1053.0614 v 46.9612 h 22.91688 v -5.0721 h -17.21935 v -30.4729 l 5.2179,-2.4652 -5.2179,-8.951 z"
       style="font-size:50.8px;font-family:Orkney;-inkscape-font-specification:Orkney;fill:#ffffff;fill-opacity:1;fill-rule:evenodd;stroke-width:0;stroke-linecap:round;stroke-linejoin:round;paint-order:stroke markers fill"
       id="path21"
       sodipodi:nodetypes="ccccccccc" /><path
       d="m -380.67159,1053.0614 v 46.9612 h 9.45491 v -32.6851 l 23.98185,32.6851 h 9.64218 v -35.545 l 5.2179,-2.4652 -5.2179,-8.951 h -9.39185 v 32.6221 l -24.04429,-32.6221 z"
       style="font-size:50.8px;font-family:Orkney;-inkscape-font-specification:Orkney;fill:#1a3048;fill-opacity:1;fill-rule:evenodd;stroke-width:0;stroke-linecap:round;stroke-linejoin:round;paint-order:stroke markers fill"
       id="path22"
       sodipodi:nodetypes="ccccccccccccc" /><path
       d="m -314.02864,1052.4354 c -9.01653,0 -15.84162,5.0718 -15.84162,12.9613 0,7.5764 6.76252,10.4567 13.14923,12.9613 5.5101,2.1289 10.70715,4.0699 10.70715,8.453 -0.0626,3.6316 -3.25567,5.0714 -7.51348,5.0714 -5.25964,0 -9.64276,-2.2541 -12.33519,-6.3867 l -6.5122,6.4498 c 3.94473,5.1969 10.95762,8.7032 18.53402,8.7032 9.58005,0 17.40723,-4.4457 17.40723,-13.9632 0,-9.0791 -8.14035,-12.2721 -14.90275,-14.9645 -4.75871,-1.8784 -8.82878,-3.5068 -8.82878,-6.7001 0,-2.8803 2.62983,-4.6963 6.38672,-4.6963 4.63349,0 7.95235,1.6283 10.83262,4.8843 l 6.13639,-5.9486 c -3.81949,-4.0699 -9.83079,-6.8249 -17.21934,-6.8249 z"
       style="font-size:50.8px;font-family:Orkney;-inkscape-font-specification:Orkney;fill:#1a3048;fill-opacity:1;fill-rule:evenodd;stroke-width:0;stroke-linecap:round;stroke-linejoin:round;paint-order:stroke markers fill"
       id="path23" /><path
       d="m -380.67159,1033.3529 1.65786,3.0867 h 103.13247 l -1.65786,-3.0867 z"
       style="fill:#4780bb;fill-opacity:0.933333;fill-rule:evenodd;stroke-width:0;stroke-linecap:round;stroke-linejoin:round;paint-order:stroke markers fill"
       id="path26"
       sodipodi:nodetypes="ccccc" /><path
       d="m -378.18479,1037.4973 1.65786,3.0868 h 103.13247 l -1.65786,-3.0868 z"
       style="fill:#376699;fill-opacity:1;fill-rule:evenodd;stroke-width:0;stroke-linecap:round;stroke-linejoin:round;paint-order:stroke markers fill"
       id="path27"
       sodipodi:nodetypes="ccccc" /><path
       d="m -375.698,1041.6418 1.65786,3.0869 h 103.13248 l -1.65786,-3.0869 z"
       style="fill:#294c72;fill-opacity:1;fill-rule:evenodd;stroke-width:0;stroke-linecap:round;stroke-linejoin:round;paint-order:stroke markers fill"
       id="path28"
       sodipodi:nodetypes="ccccc" /><path
       d="m -270.90766,1108.3554 -1.65786,3.0867 H -375.698 l 1.65786,-3.0867 z"
       style="fill:#818181;fill-opacity:0.933333;fill-rule:evenodd;stroke-width:0;stroke-linecap:round;stroke-linejoin:round;paint-order:stroke markers fill"
       id="path29"
       sodipodi:nodetypes="ccccc" /><path
       d="m -273.39446,1112.4998 -1.65786,3.0868 h -103.13247 l 1.65786,-3.0868 z"
       style="fill:#686868;fill-opacity:1;fill-rule:evenodd;stroke-width:0;stroke-linecap:round;stroke-linejoin:round;paint-order:stroke markers fill"
       id="path30"
       sodipodi:nodetypes="ccccc" /><path
       d="m -275.88125,1116.6443 -1.65786,3.0869 h -103.13248 l 1.65786,-3.0869 z"
       style="fill:#4e4e4e;fill-opacity:1;fill-rule:evenodd;stroke-width:0;stroke-linecap:round;stroke-linejoin:round;paint-order:stroke markers fill"
       id="path31"
       sodipodi:nodetypes="ccccc" /></g></svg>
